<?xml version="1.0" encoding="UTF-8"?>
<svg id="_レイヤー_2" data-name="レイヤー 2" xmlns="http://www.w3.org/2000/svg" viewBox="0 0 83.04 19.19">
  <g id="text">
    <g>
      <path class="cls-1" d="M0,13.88c22.1-10.93,49.92,6.27,73.12,3.28,3.44-.47,6.82-1.52,9.93-3.24-2.82,2.16-6.22,3.57-9.72,4.37-10.57,2.26-21.5-.18-31.84-2.23C27.87,13.27,13.52,9.34,0,13.88h0Z"/>
      <path class="cls-1" d="M27.78,3.79c20.73-11.59,31.28,7.54,48.65,2.73,2.27-.62,4.45-1.61,6.61-2.69-1.88,1.52-3.97,2.81-6.24,3.77-17.87,6.84-26.3-11.63-49.03-3.81h0Z"/>
    </g>
  </g>
</svg>